<svg width="24" height="24" viewBox="0 0 24 24" fill="none" xmlns="http://www.w3.org/2000/svg">
<g clip-path="url(#clip0_86_31702)">
<path d="M16.8603 19.1673L14.633 16.9399C13.9904 16.2973 12.9446 16.2974 12.3021 16.9399L11.3235 17.9185C9.08854 16.7481 7.25189 14.9115 6.08151 12.6765L7.06012 11.6978C7.70269 11.0552 7.70269 10.0096 7.06012 9.36698L4.83281 7.13967C4.1902 6.49706 3.14456 6.49706 2.50195 7.13967L0.720094 8.92158C-0.210937 9.85256 -0.240046 11.4938 0.63811 13.5428C1.42973 15.39 2.88267 17.4242 4.72922 19.2708C6.57576 21.1173 8.61 22.5703 10.4572 23.3619C11.4503 23.7875 12.3475 24 13.1146 24C13.9302 24 14.5987 23.7597 15.0784 23.28L16.8603 21.4981C17.1716 21.1868 17.343 20.7729 17.343 20.3326C17.3431 19.8925 17.1716 19.4786 16.8603 19.1673ZM15.8658 20.5036L14.0839 22.2855C13.6015 22.7679 12.4529 22.6871 11.0111 22.0693C9.32451 21.3464 7.4467 19.9994 5.72362 18.2763C4.00059 16.5533 2.65355 14.6755 1.93069 12.9889C1.31287 11.5472 1.23197 10.3985 1.71445 9.91608L3.49631 8.13422C3.59062 8.03995 3.744 8.03995 3.83826 8.13422L6.06558 10.3615C6.15984 10.4558 6.15984 10.6092 6.06558 10.7034L4.37878 12.3903L4.59094 12.8381C5.95294 15.7134 8.28656 18.0471 11.1619 19.4091L11.6098 19.6212L13.2966 17.9344C13.3582 17.8728 13.4302 17.8636 13.4675 17.8636C13.5049 17.8636 13.5768 17.8728 13.6384 17.9344L15.8657 20.1617C15.9273 20.2233 15.9366 20.2952 15.9366 20.3326C15.9367 20.3701 15.9274 20.442 15.8658 20.5036Z" fill="#009A44"/>
<path d="M21.8321 1.81697C20.4651 0.645281 18.6544 0 16.7336 0C14.8128 0 13.002 0.645281 11.6351 1.81697C10.2371 3.01523 9.4672 4.61756 9.4672 6.32878C9.4672 8.04 10.2371 9.64228 11.6351 10.8406C11.8856 11.0553 12.1511 11.2522 12.4294 11.4308C11.9156 12.205 11.3149 12.9166 10.6392 13.5497C12.113 13.4278 13.5104 13.0373 14.7832 12.4281C15.4106 12.5792 16.0654 12.6576 16.7336 12.6576C18.6544 12.6576 20.4651 12.0123 21.8321 10.8406C23.2301 9.64238 24 8.04 24 6.32878C24 4.61756 23.2301 3.01528 21.8321 1.81697ZM16.7336 11.2512C13.5024 11.2512 10.8736 9.04299 10.8736 6.32878C10.8736 3.61458 13.5024 1.40639 16.7336 1.40639C19.9648 1.40639 22.5936 3.61458 22.5936 6.32878C22.5936 9.04299 19.9648 11.2512 16.7336 11.2512Z" fill="#009A44"/>
<path d="M16.7338 7.2663C17.2516 7.2663 17.6714 6.84653 17.6714 6.32871C17.6714 5.81089 17.2516 5.39111 16.7338 5.39111C16.2159 5.39111 15.7962 5.81089 15.7962 6.32871C15.7962 6.84653 16.2159 7.2663 16.7338 7.2663Z" fill="#009A44"/>
<path d="M13.4522 7.2663C13.97 7.2663 14.3898 6.84653 14.3898 6.32871C14.3898 5.81089 13.97 5.39111 13.4522 5.39111C12.9344 5.39111 12.5146 5.81089 12.5146 6.32871C12.5146 6.84653 12.9344 7.2663 13.4522 7.2663Z" fill="#009A44"/>
<path d="M20.0154 7.2663C20.5332 7.2663 20.953 6.84653 20.953 6.32871C20.953 5.81089 20.5332 5.39111 20.0154 5.39111C19.4976 5.39111 19.0778 5.81089 19.0778 6.32871C19.0778 6.84653 19.4976 7.2663 20.0154 7.2663Z" fill="#009A44"/>
</g>
<defs>
<clipPath id="clip0_86_31702">
<rect width="24" height="24" fill="white"/>
</clipPath>
</defs>
</svg>
